<?xml version="1.0" encoding="UTF-8" standalone="no"?><svg xmlns="http://www.w3.org/2000/svg" xmlns:xlink="http://www.w3.org/1999/xlink" contentScriptType="application/ecmascript" contentStyleType="text/css" height="248px" preserveAspectRatio="none" style="width:200px;height:248px;background:#FFFFFF;" version="1.1" viewBox="0 0 200 248" width="200px" zoomAndPan="magnify"><defs><filter height="300%" id="f1fab38xkdbcb5" width="300%" x="-1" y="-1"><feGaussianBlur result="blurOut" stdDeviation="2.0"/><feColorMatrix in="blurOut" result="blurOut2" type="matrix" values="0 0 0 0 0 0 0 0 0 0 0 0 0 0 0 0 0 0 .4 0"/><feOffset dx="4.0" dy="4.0" in="blurOut2" result="blurOut3"/><feBlend in="SourceGraphic" in2="blurOut3" mode="normal"/></filter></defs><g><rect codeLine="2" fill="#FEFECE" filter="url(#f1fab38xkdbcb5)" height="227.2656" id="Stack" style="stroke:#A80036;stroke-width:1.5;" width="179" x="7" y="7"/><ellipse cx="74.75" cy="23" fill="#ADD1B2" rx="11" ry="11" style="stroke:#A80036;stroke-width:1.0;"/><path d="M77.7188,28.6406 Q77.1406,28.9375 76.5,29.0859 Q75.8594,29.2344 75.1563,29.2344 Q72.6563,29.2344 71.3359,27.5859 Q70.0156,25.9375 70.0156,22.8125 Q70.0156,19.6875 71.3359,18.0313 Q72.6563,16.375 75.1563,16.375 Q75.8594,16.375 76.5078,16.5313 Q77.1563,16.6875 77.7188,16.9844 L77.7188,19.7031 Q77.0938,19.125 76.5,18.8516 Q75.9063,18.5781 75.2813,18.5781 Q73.9375,18.5781 73.25,19.6484 Q72.5625,20.7188 72.5625,22.8125 Q72.5625,24.9063 73.25,25.9766 Q73.9375,27.0469 75.2813,27.0469 Q75.9063,27.0469 76.5,26.7734 Q77.0938,26.5 77.7188,25.9219 L77.7188,28.6406 Z " fill="#000000"/><text fill="#000000" font-family="sans-serif" font-size="12" lengthAdjust="spacing" textLength="35" x="95.25" y="27.1543">Stack</text><line style="stroke:#A80036;stroke-width:1.5;" x1="8" x2="185" y1="39" y2="39"/><rect fill="none" height="6" style="stroke:#C82930;stroke-width:1.0;" width="6" x="15" y="47"/><text fill="#000000" font-family="sans-serif" font-size="11" lengthAdjust="spacing" textLength="74" x="27" y="53.2104">elements: T*</text><rect fill="none" height="6" style="stroke:#C82930;stroke-width:1.0;" width="6" x="15" y="59.8047"/><text fill="#000000" font-family="sans-serif" font-size="11" lengthAdjust="spacing" textLength="44" x="27" y="66.0151">size: int</text><rect fill="none" height="6" style="stroke:#C82930;stroke-width:1.0;" width="6" x="15" y="72.6094"/><text fill="#000000" font-family="sans-serif" font-size="11" lengthAdjust="spacing" textLength="68" x="27" y="78.8198">capacity: int</text><line style="stroke:#A80036;stroke-width:1.5;" x1="8" x2="185" y1="85.4141" y2="85.4141"/><ellipse cx="18" cy="96.4141" fill="#84BE84" rx="3" ry="3" style="stroke:#038048;stroke-width:1.0;"/><text fill="#000000" font-family="sans-serif" font-size="11" lengthAdjust="spacing" textLength="39" x="27" y="99.6245">Stack()</text><ellipse cx="18" cy="109.2188" fill="#84BE84" rx="3" ry="3" style="stroke:#038048;stroke-width:1.0;"/><text fill="#000000" font-family="sans-serif" font-size="11" lengthAdjust="spacing" textLength="107" x="27" y="112.4292">Stack(capacity: int)</text><ellipse cx="18" cy="122.0234" fill="#84BE84" rx="3" ry="3" style="stroke:#038048;stroke-width:1.0;"/><text fill="#000000" font-family="sans-serif" font-size="11" lengthAdjust="spacing" textLength="153" x="27" y="125.2339">Stack(stack: const Stack&amp;)</text><polygon fill="#4177AF" points="18,130.8281,14,136.8281,22,136.8281" style="stroke:#1963A0;stroke-width:1.0;"/><text fill="#000000" font-family="sans-serif" font-size="11" lengthAdjust="spacing" textLength="39" x="27" y="138.0386">Stack()</text><ellipse cx="18" cy="147.6328" fill="#84BE84" rx="3" ry="3" style="stroke:#038048;stroke-width:1.0;"/><text fill="#000000" font-family="sans-serif" font-size="11" lengthAdjust="spacing" textLength="106" x="27" y="150.8433">empty():bool const</text><ellipse cx="18" cy="160.4375" fill="#84BE84" rx="3" ry="3" style="stroke:#038048;stroke-width:1.0;"/><text fill="#000000" font-family="sans-serif" font-size="11" lengthAdjust="spacing" textLength="81" x="27" y="163.6479">peek():T const</text><ellipse cx="18" cy="173.2422" fill="#84BE84" rx="3" ry="3" style="stroke:#038048;stroke-width:1.0;"/><text fill="#000000" font-family="sans-serif" font-size="11" lengthAdjust="spacing" textLength="112" x="27" y="176.4526">push(value: T): void</text><ellipse cx="18" cy="186.0469" fill="#84BE84" rx="3" ry="3" style="stroke:#038048;stroke-width:1.0;"/><text fill="#000000" font-family="sans-serif" font-size="11" lengthAdjust="spacing" textLength="44" x="27" y="189.2573">pop(): T</text><ellipse cx="18" cy="198.8516" fill="#84BE84" rx="3" ry="3" style="stroke:#038048;stroke-width:1.0;"/><text fill="#000000" font-family="sans-serif" font-size="11" lengthAdjust="spacing" textLength="106" x="27" y="202.062">getSize(): int const</text><ellipse cx="18" cy="211.6563" fill="#84BE84" rx="3" ry="3" style="stroke:#038048;stroke-width:1.0;"/><text fill="#000000" font-family="sans-serif" font-size="11" lengthAdjust="spacing" textLength="131" x="27" y="214.8667">getCapacity(): int const</text><rect fill="#F24D5C" height="6" style="stroke:#C82930;stroke-width:1.0;" width="6" x="15" y="221.4609"/><text fill="#000000" font-family="sans-serif" font-size="11" lengthAdjust="spacing" textLength="127" x="27" y="227.6714">ensureCapacity(): void</text></g></svg>