<?xml version="1.0" encoding="UTF-8" standalone="no"?><svg xmlns="http://www.w3.org/2000/svg" xmlns:xlink="http://www.w3.org/1999/xlink" contentScriptType="application/ecmascript" contentStyleType="text/css" height="286px" preserveAspectRatio="none" style="width:768px;height:286px;background:#FFFFFF;" version="1.1" viewBox="0 0 768 286" width="768px" zoomAndPan="magnify"><defs><filter height="300%" id="f1u5rvwpxkn1lw" width="300%" x="-1" y="-1"><feGaussianBlur result="blurOut" stdDeviation="2.0"/><feColorMatrix in="blurOut" result="blurOut2" type="matrix" values="0 0 0 0 0 0 0 0 0 0 0 0 0 0 0 0 0 0 .4 0"/><feOffset dx="4.0" dy="4.0" in="blurOut2" result="blurOut3"/><feBlend in="SourceGraphic" in2="blurOut3" mode="normal"/></filter></defs><g><rect codeLine="2" fill="#FEFECE" filter="url(#f1u5rvwpxkn1lw)" height="176.0469" id="GeometricObject" style="stroke:#A80036;stroke-width:1.5;" width="198" x="7" y="76.8402"/><ellipse cx="49.9" cy="92.8402" fill="#ADD1B2" rx="11" ry="11" style="stroke:#A80036;stroke-width:1.0;"/><path d="M52.8688,98.4808 Q52.2906,98.7777 51.65,98.9261 Q51.0094,99.0746 50.3063,99.0746 Q47.8063,99.0746 46.4859,97.4261 Q45.1656,95.7777 45.1656,92.6527 Q45.1656,89.5277 46.4859,87.8714 Q47.8063,86.2152 50.3063,86.2152 Q51.0094,86.2152 51.6578,86.3714 Q52.3063,86.5277 52.8688,86.8246 L52.8688,89.5433 Q52.2438,88.9652 51.65,88.6918 Q51.0563,88.4183 50.4313,88.4183 Q49.0875,88.4183 48.4,89.4886 Q47.7125,90.5589 47.7125,92.6527 Q47.7125,94.7464 48.4,95.8168 Q49.0875,96.8871 50.4313,96.8871 Q51.0563,96.8871 51.65,96.6136 Q52.2438,96.3402 52.8688,95.7621 L52.8688,98.4808 Z " fill="#000000"/><text fill="#000000" font-family="sans-serif" font-size="12" lengthAdjust="spacing" textLength="104" x="70.1" y="96.9945">GeometricObject</text><line style="stroke:#A80036;stroke-width:1.5;" x1="8" x2="204" y1="108.8402" y2="108.8402"/><rect fill="none" height="6" style="stroke:#C82930;stroke-width:1.0;" width="6" x="15" y="116.8402"/><text fill="#000000" font-family="sans-serif" font-size="11" lengthAdjust="spacing" textLength="69" x="27" y="123.0506">color: string</text><rect fill="none" height="6" style="stroke:#C82930;stroke-width:1.0;" width="6" x="15" y="129.6449"/><text fill="#000000" font-family="sans-serif" font-size="11" lengthAdjust="spacing" textLength="59" x="27" y="135.8553">filled: bool</text><line style="stroke:#A80036;stroke-width:1.5;" x1="8" x2="204" y1="142.4496" y2="142.4496"/><ellipse cx="18" cy="153.4496" fill="#84BE84" rx="3" ry="3" style="stroke:#038048;stroke-width:1.0;"/><text fill="#000000" font-family="sans-serif" font-size="11" lengthAdjust="spacing" textLength="103" x="27" y="156.66">GeometricObject()</text><ellipse cx="18" cy="166.2543" fill="#84BE84" rx="3" ry="3" style="stroke:#038048;stroke-width:1.0;"/><text fill="#000000" font-family="sans-serif" font-size="11" lengthAdjust="spacing" textLength="172" x="27" y="169.4647">GeometricObject(color: string,</text><text fill="#000000" font-family="sans-serif" font-size="11" lengthAdjust="spacing" textLength="73" x="27" y="182.2694">isfilled: bool)</text><ellipse cx="18" cy="191.8636" fill="#84BE84" rx="3" ry="3" style="stroke:#038048;stroke-width:1.0;"/><text fill="#000000" font-family="sans-serif" font-size="11" lengthAdjust="spacing" textLength="132" x="27" y="195.0741">getColor(): string const</text><ellipse cx="18" cy="204.6683" fill="#84BE84" rx="3" ry="3" style="stroke:#038048;stroke-width:1.0;"/><text fill="#000000" font-family="sans-serif" font-size="11" lengthAdjust="spacing" textLength="156" x="27" y="207.8788">setColor(color: string): void</text><ellipse cx="18" cy="217.473" fill="#84BE84" rx="3" ry="3" style="stroke:#038048;stroke-width:1.0;"/><text fill="#000000" font-family="sans-serif" font-size="11" lengthAdjust="spacing" textLength="114" x="27" y="220.6835">isFilled(): bool const</text><ellipse cx="18" cy="230.2777" fill="#84BE84" rx="3" ry="3" style="stroke:#038048;stroke-width:1.0;"/><text fill="#000000" font-family="sans-serif" font-size="11" lengthAdjust="spacing" textLength="145" x="27" y="233.4881">setFilled(filled: bool): void</text><ellipse cx="18" cy="243.0824" fill="#84BE84" rx="3" ry="3" style="stroke:#038048;stroke-width:1.0;"/><text fill="#000000" font-family="sans-serif" font-size="11" lengthAdjust="spacing" textLength="129" x="27" y="246.2928">toString(): string const</text><rect codeLine="17" fill="#FEFECE" filter="url(#f1u5rvwpxkn1lw)" height="188.8516" id="Circle" style="stroke:#A80036;stroke-width:1.5;" width="225" x="529.5" y="70.3402"/><ellipse cx="620.75" cy="86.3402" fill="#ADD1B2" rx="11" ry="11" style="stroke:#A80036;stroke-width:1.0;"/><path d="M623.7188,91.9808 Q623.1406,92.2777 622.5,92.4261 Q621.8594,92.5746 621.1563,92.5746 Q618.6563,92.5746 617.3359,90.9261 Q616.0156,89.2777 616.0156,86.1527 Q616.0156,83.0277 617.3359,81.3714 Q618.6563,79.7152 621.1563,79.7152 Q621.8594,79.7152 622.5078,79.8714 Q623.1563,80.0277 623.7188,80.3246 L623.7188,83.0433 Q623.0938,82.4652 622.5,82.1918 Q621.9063,81.9183 621.2813,81.9183 Q619.9375,81.9183 619.25,82.9886 Q618.5625,84.0589 618.5625,86.1527 Q618.5625,88.2464 619.25,89.3168 Q619.9375,90.3871 621.2813,90.3871 Q621.9063,90.3871 622.5,90.1136 Q623.0938,89.8402 623.7188,89.2621 L623.7188,91.9808 Z " fill="#000000"/><text fill="#000000" font-family="sans-serif" font-size="12" lengthAdjust="spacing" textLength="34" x="641.25" y="90.4945">Circle</text><line style="stroke:#A80036;stroke-width:1.5;" x1="530.5" x2="753.5" y1="102.3402" y2="102.3402"/><rect fill="none" height="6" style="stroke:#C82930;stroke-width:1.0;" width="6" x="537.5" y="110.3402"/><text fill="#000000" font-family="sans-serif" font-size="11" lengthAdjust="spacing" textLength="82" x="549.5" y="116.5506">radius: double</text><line style="stroke:#A80036;stroke-width:1.5;" x1="530.5" x2="753.5" y1="123.1449" y2="123.1449"/><ellipse cx="540.5" cy="134.1449" fill="#84BE84" rx="3" ry="3" style="stroke:#038048;stroke-width:1.0;"/><text fill="#000000" font-family="sans-serif" font-size="11" lengthAdjust="spacing" textLength="122" x="549.5" y="137.3553">Circle(radius: double)</text><ellipse cx="540.5" cy="146.9496" fill="#84BE84" rx="3" ry="3" style="stroke:#038048;stroke-width:1.0;"/><text fill="#000000" font-family="sans-serif" font-size="11" lengthAdjust="spacing" textLength="199" x="549.5" y="150.16">Circle(radius: double, color: string,</text><text fill="#000000" font-family="sans-serif" font-size="11" lengthAdjust="spacing" textLength="63" x="549.5" y="162.9647">filled: bool)</text><ellipse cx="540.5" cy="172.5589" fill="#84BE84" rx="3" ry="3" style="stroke:#038048;stroke-width:1.0;"/><text fill="#000000" font-family="sans-serif" font-size="11" lengthAdjust="spacing" textLength="145" x="549.5" y="175.7694">getRadius(): double const</text><ellipse cx="540.5" cy="185.3636" fill="#84BE84" rx="3" ry="3" style="stroke:#038048;stroke-width:1.0;"/><text fill="#000000" font-family="sans-serif" font-size="11" lengthAdjust="spacing" textLength="177" x="549.5" y="188.5741">setRadius(radius: double): void</text><ellipse cx="540.5" cy="198.1683" fill="#84BE84" rx="3" ry="3" style="stroke:#038048;stroke-width:1.0;"/><text fill="#000000" font-family="sans-serif" font-size="11" lengthAdjust="spacing" textLength="40" x="549.5" y="201.3788">Circle()</text><ellipse cx="540.5" cy="210.973" fill="#84BE84" rx="3" ry="3" style="stroke:#038048;stroke-width:1.0;"/><text fill="#000000" font-family="sans-serif" font-size="11" lengthAdjust="spacing" textLength="133" x="549.5" y="214.1835">getArea(): double const</text><ellipse cx="540.5" cy="223.7777" fill="#84BE84" rx="3" ry="3" style="stroke:#038048;stroke-width:1.0;"/><text fill="#000000" font-family="sans-serif" font-size="11" lengthAdjust="spacing" textLength="163" x="549.5" y="226.9881">getPerimeter(): double const</text><ellipse cx="540.5" cy="236.5824" fill="#84BE84" rx="3" ry="3" style="stroke:#038048;stroke-width:1.0;"/><text fill="#000000" font-family="sans-serif" font-size="11" lengthAdjust="spacing" textLength="159" x="549.5" y="239.7928">getDiameter(): double const</text><ellipse cx="540.5" cy="249.3871" fill="#84BE84" rx="3" ry="3" style="stroke:#038048;stroke-width:1.0;"/><text fill="#000000" font-family="sans-serif" font-size="11" lengthAdjust="spacing" textLength="129" x="549.5" y="252.5975">toString(): string const</text><rect codeLine="34" fill="#FEFECE" filter="url(#f1u5rvwpxkn1lw)" height="214.4609" id="Rectangle" style="stroke:#A80036;stroke-width:1.5;" width="254" x="240" y="57.8402"/><ellipse cx="331.25" cy="73.8402" fill="#ADD1B2" rx="11" ry="11" style="stroke:#A80036;stroke-width:1.0;"/><path d="M334.2188,79.4808 Q333.6406,79.7777 333,79.9261 Q332.3594,80.0746 331.6563,80.0746 Q329.1563,80.0746 327.8359,78.4261 Q326.5156,76.7777 326.5156,73.6527 Q326.5156,70.5277 327.8359,68.8714 Q329.1563,67.2152 331.6563,67.2152 Q332.3594,67.2152 333.0078,67.3714 Q333.6563,67.5277 334.2188,67.8246 L334.2188,70.5433 Q333.5938,69.9652 333,69.6918 Q332.4063,69.4183 331.7813,69.4183 Q330.4375,69.4183 329.75,70.4886 Q329.0625,71.5589 329.0625,73.6527 Q329.0625,75.7464 329.75,76.8168 Q330.4375,77.8871 331.7813,77.8871 Q332.4063,77.8871 333,77.6136 Q333.5938,77.3402 334.2188,76.7621 L334.2188,79.4808 Z " fill="#000000"/><text fill="#000000" font-family="sans-serif" font-size="12" lengthAdjust="spacing" textLength="63" x="351.75" y="77.9945">Rectangle</text><line style="stroke:#A80036;stroke-width:1.5;" x1="241" x2="493" y1="89.8402" y2="89.8402"/><rect fill="none" height="6" style="stroke:#C82930;stroke-width:1.0;" width="6" x="248" y="97.8402"/><text fill="#000000" font-family="sans-serif" font-size="11" lengthAdjust="spacing" textLength="76" x="260" y="104.0506">width: double</text><rect fill="none" height="6" style="stroke:#C82930;stroke-width:1.0;" width="6" x="248" y="110.6449"/><text fill="#000000" font-family="sans-serif" font-size="11" lengthAdjust="spacing" textLength="81" x="260" y="116.8553">height: double</text><line style="stroke:#A80036;stroke-width:1.5;" x1="241" x2="493" y1="123.4496" y2="123.4496"/><ellipse cx="251" cy="134.4496" fill="#84BE84" rx="3" ry="3" style="stroke:#038048;stroke-width:1.0;"/><text fill="#000000" font-family="sans-serif" font-size="11" lengthAdjust="spacing" textLength="228" x="260" y="137.66">Rectangle(width: double, height: double)</text><ellipse cx="251" cy="147.2543" fill="#84BE84" rx="3" ry="3" style="stroke:#038048;stroke-width:1.0;"/><text fill="#000000" font-family="sans-serif" font-size="11" lengthAdjust="spacing" textLength="228" x="260" y="150.4647">Rectangle(width: double, height: double,</text><text fill="#000000" font-family="sans-serif" font-size="11" lengthAdjust="spacing" textLength="140" x="260" y="163.2694">color: string, filled: bool)</text><ellipse cx="251" cy="172.8636" fill="#84BE84" rx="3" ry="3" style="stroke:#038048;stroke-width:1.0;"/><text fill="#000000" font-family="sans-serif" font-size="11" lengthAdjust="spacing" textLength="137" x="260" y="176.0741">getWidth(): double const</text><ellipse cx="251" cy="185.6683" fill="#84BE84" rx="3" ry="3" style="stroke:#038048;stroke-width:1.0;"/><text fill="#000000" font-family="sans-serif" font-size="11" lengthAdjust="spacing" textLength="163" x="260" y="188.8788">setWidth(width: double): void</text><ellipse cx="251" cy="198.473" fill="#84BE84" rx="3" ry="3" style="stroke:#038048;stroke-width:1.0;"/><text fill="#000000" font-family="sans-serif" font-size="11" lengthAdjust="spacing" textLength="63" x="260" y="201.6835">Rectangle()</text><ellipse cx="251" cy="211.2777" fill="#84BE84" rx="3" ry="3" style="stroke:#038048;stroke-width:1.0;"/><text fill="#000000" font-family="sans-serif" font-size="11" lengthAdjust="spacing" textLength="143" x="260" y="214.4881">getHeight(): double const</text><ellipse cx="251" cy="224.0824" fill="#84BE84" rx="3" ry="3" style="stroke:#038048;stroke-width:1.0;"/><text fill="#000000" font-family="sans-serif" font-size="11" lengthAdjust="spacing" textLength="174" x="260" y="227.2928">setHeight(height: double): void</text><ellipse cx="251" cy="236.8871" fill="#84BE84" rx="3" ry="3" style="stroke:#038048;stroke-width:1.0;"/><text fill="#000000" font-family="sans-serif" font-size="11" lengthAdjust="spacing" textLength="133" x="260" y="240.0975">getArea(): double const</text><ellipse cx="251" cy="249.6918" fill="#84BE84" rx="3" ry="3" style="stroke:#038048;stroke-width:1.0;"/><text fill="#000000" font-family="sans-serif" font-size="11" lengthAdjust="spacing" textLength="163" x="260" y="252.9022">getPerimeter(): double const</text><ellipse cx="251" cy="262.4965" fill="#84BE84" rx="3" ry="3" style="stroke:#038048;stroke-width:1.0;"/><text fill="#000000" font-family="sans-serif" font-size="11" lengthAdjust="spacing" textLength="129" x="260" y="265.7069">toString(): string const</text><path codeLine="15" d="M186.8434,62.6883 C203.0003,48.4978 221.0517,36.001 240.5,27.8402 C292.5479,6 441.9626,7.2053 494.5,27.8402 C518.7351,37.3589 541.3563,52.9399 561.2506,70.2487 " fill="none" id="GeometricObject-backto-Circle" style="stroke:#A80036;stroke-width:1.0;"/><polygon fill="none" points="191.3049,68.1025,171.9496,76.7264,181.7024,57.9146,191.3049,68.1025" style="stroke:#A80036;stroke-width:1.0;"/><path codeLine="32" d="M225.2523,164.8402 C230.1422,164.8402 235.0321,164.8402 239.922,164.8402 " fill="none" id="GeometricObject-backto-Rectangle" style="stroke:#A80036;stroke-width:1.0;"/><polygon fill="none" points="225.1494,171.8401,205.1494,164.8402,225.1494,157.8401,225.1494,171.8401" style="stroke:#A80036;stroke-width:1.0;"/></g></svg>