<?xml version="1.0" encoding="UTF-8" standalone="no"?><svg xmlns="http://www.w3.org/2000/svg" xmlns:xlink="http://www.w3.org/1999/xlink" contentScriptType="application/ecmascript" contentStyleType="text/css" height="145px" preserveAspectRatio="none" style="width:224px;height:145px;background:#FFFFFF;" version="1.1" viewBox="0 0 224 145" width="224px" zoomAndPan="magnify"><defs><filter height="300%" id="f1bt1li9521572" width="300%" x="-1" y="-1"><feGaussianBlur result="blurOut" stdDeviation="2.0"/><feColorMatrix in="blurOut" result="blurOut2" type="matrix" values="0 0 0 0 0 0 0 0 0 0 0 0 0 0 0 0 0 0 .4 0"/><feOffset dx="4.0" dy="4.0" in="blurOut2" result="blurOut3"/><feBlend in="SourceGraphic" in2="blurOut3" mode="normal"/></filter></defs><g><rect codeLine="2" fill="#FEFECE" filter="url(#f1bt1li9521572)" height="124.8281" id="Circle" style="stroke:#A80036;stroke-width:1.5;" width="203" x="7" y="7"/><ellipse cx="87.25" cy="23" fill="#ADD1B2" rx="11" ry="11" style="stroke:#A80036;stroke-width:1.0;"/><path d="M90.2188,28.6406 Q89.6406,28.9375 89,29.0859 Q88.3594,29.2344 87.6563,29.2344 Q85.1563,29.2344 83.8359,27.5859 Q82.5156,25.9375 82.5156,22.8125 Q82.5156,19.6875 83.8359,18.0313 Q85.1563,16.375 87.6563,16.375 Q88.3594,16.375 89.0078,16.5313 Q89.6563,16.6875 90.2188,16.9844 L90.2188,19.7031 Q89.5938,19.125 89,18.8516 Q88.4063,18.5781 87.7813,18.5781 Q86.4375,18.5781 85.75,19.6484 Q85.0625,20.7188 85.0625,22.8125 Q85.0625,24.9063 85.75,25.9766 Q86.4375,27.0469 87.7813,27.0469 Q88.4063,27.0469 89,26.7734 Q89.5938,26.5 90.2188,25.9219 L90.2188,28.6406 Z " fill="#000000"/><text fill="#000000" font-family="sans-serif" font-size="12" lengthAdjust="spacing" textLength="34" x="107.75" y="27.1543">Circle</text><line style="stroke:#A80036;stroke-width:1.5;" x1="8" x2="209" y1="39" y2="39"/><rect fill="none" height="6" style="stroke:#C82930;stroke-width:1.0;" width="6" x="15" y="47"/><text fill="#000000" font-family="sans-serif" font-size="11" lengthAdjust="spacing" textLength="36" x="27" y="53.2104">radius</text><line style="stroke:#A80036;stroke-width:1.5;" x1="8" x2="209" y1="59.8047" y2="59.8047"/><ellipse cx="18" cy="70.8047" fill="#84BE84" rx="3" ry="3" style="stroke:#038048;stroke-width:1.0;"/><text fill="#000000" font-family="sans-serif" font-size="11" lengthAdjust="spacing" textLength="40" x="27" y="74.0151">Circle()</text><ellipse cx="18" cy="83.6094" fill="#84BE84" rx="3" ry="3" style="stroke:#038048;stroke-width:1.0;"/><text fill="#000000" font-family="sans-serif" font-size="11" lengthAdjust="spacing" textLength="122" x="27" y="86.8198">Circle(radius: double)</text><ellipse cx="18" cy="96.4141" fill="#84BE84" rx="3" ry="3" style="stroke:#038048;stroke-width:1.0;"/><text fill="#000000" font-family="sans-serif" font-size="11" lengthAdjust="spacing" textLength="110" x="27" y="99.6245">getRadius(): double</text><ellipse cx="18" cy="109.2188" fill="#84BE84" rx="3" ry="3" style="stroke:#038048;stroke-width:1.0;"/><text fill="#000000" font-family="sans-serif" font-size="11" lengthAdjust="spacing" textLength="177" x="27" y="112.4292">setRadius(radius: double): void</text><ellipse cx="18" cy="122.0234" fill="#84BE84" rx="3" ry="3" style="stroke:#038048;stroke-width:1.0;"/><text fill="#000000" font-family="sans-serif" font-size="11" lengthAdjust="spacing" textLength="98" x="27" y="125.2339">getArea(): double</text></g></svg>