<?xml version="1.0" encoding="UTF-8" standalone="no"?><svg xmlns="http://www.w3.org/2000/svg" xmlns:xlink="http://www.w3.org/1999/xlink" contentScriptType="application/ecmascript" contentStyleType="text/css" height="228px" preserveAspectRatio="none" style="width:207px;height:228px;background:#FFFFFF;" version="1.1" viewBox="0 0 207 228" width="207px" zoomAndPan="magnify"><defs><filter height="300%" id="f1o9grss0j4jx4" width="300%" x="-1" y="-1"><feGaussianBlur result="blurOut" stdDeviation="2.0"/><feColorMatrix in="blurOut" result="blurOut2" type="matrix" values="0 0 0 0 0 0 0 0 0 0 0 0 0 0 0 0 0 0 .4 0"/><feOffset dx="4.0" dy="4.0" in="blurOut2" result="blurOut3"/><feBlend in="SourceGraphic" in2="blurOut3" mode="normal"/></filter></defs><g><rect codeLine="2" fill="#FEFECE" filter="url(#f1o9grss0j4jx4)" height="99.2188" id="Student" style="stroke:#A80036;stroke-width:1.5;" width="82" x="55" y="7"/><ellipse cx="70" cy="23" fill="#ADD1B2" rx="11" ry="11" style="stroke:#A80036;stroke-width:1.0;"/><path d="M72.9688,28.6406 Q72.3906,28.9375 71.75,29.0859 Q71.1094,29.2344 70.4063,29.2344 Q67.9063,29.2344 66.5859,27.5859 Q65.2656,25.9375 65.2656,22.8125 Q65.2656,19.6875 66.5859,18.0313 Q67.9063,16.375 70.4063,16.375 Q71.1094,16.375 71.7578,16.5313 Q72.4063,16.6875 72.9688,16.9844 L72.9688,19.7031 Q72.3438,19.125 71.75,18.8516 Q71.1563,18.5781 70.5313,18.5781 Q69.1875,18.5781 68.5,19.6484 Q67.8125,20.7188 67.8125,22.8125 Q67.8125,24.9063 68.5,25.9766 Q69.1875,27.0469 70.5313,27.0469 Q71.1563,27.0469 71.75,26.7734 Q72.3438,26.5 72.9688,25.9219 L72.9688,28.6406 Z " fill="#000000"/><text fill="#000000" font-family="sans-serif" font-size="12" lengthAdjust="spacing" textLength="50" x="84" y="27.1543">Student</text><line style="stroke:#A80036;stroke-width:1.5;" x1="56" x2="136" y1="39" y2="39"/><rect fill="none" height="6" style="stroke:#C82930;stroke-width:1.0;" width="6" x="63" y="47"/><text fill="#000000" font-family="sans-serif" font-size="11" lengthAdjust="spacing" textLength="44" x="75" y="53.2104">number</text><line style="stroke:#A80036;stroke-width:1.5;" x1="56" x2="136" y1="59.8047" y2="59.8047"/><ellipse cx="66" cy="70.8047" fill="#84BE84" rx="3" ry="3" style="stroke:#038048;stroke-width:1.0;"/><text fill="#000000" font-family="sans-serif" font-size="11" lengthAdjust="spacing" textLength="35" x="75" y="74.0151">start()</text><ellipse cx="66" cy="83.6094" fill="#84BE84" rx="3" ry="3" style="stroke:#038048;stroke-width:1.0;"/><text fill="#000000" font-family="sans-serif" font-size="11" lengthAdjust="spacing" textLength="27" x="75" y="86.8198">run()</text><ellipse cx="66" cy="96.4141" fill="#84BE84" rx="3" ry="3" style="stroke:#038048;stroke-width:1.0;"/><text fill="#000000" font-family="sans-serif" font-size="11" lengthAdjust="spacing" textLength="33" x="75" y="99.6245">stop()</text><rect fill="#FEFECE" filter="url(#f1o9grss0j4jx4)" height="48" id="Name" style="stroke:#A80036;stroke-width:1.5;" width="68" x="7" y="166"/><ellipse cx="22" cy="182" fill="#ADD1B2" rx="11" ry="11" style="stroke:#A80036;stroke-width:1.0;"/><path d="M24.9688,187.6406 Q24.3906,187.9375 23.75,188.0859 Q23.1094,188.2344 22.4063,188.2344 Q19.9063,188.2344 18.5859,186.5859 Q17.2656,184.9375 17.2656,181.8125 Q17.2656,178.6875 18.5859,177.0313 Q19.9063,175.375 22.4063,175.375 Q23.1094,175.375 23.7578,175.5313 Q24.4063,175.6875 24.9688,175.9844 L24.9688,178.7031 Q24.3438,178.125 23.75,177.8516 Q23.1563,177.5781 22.5313,177.5781 Q21.1875,177.5781 20.5,178.6484 Q19.8125,179.7188 19.8125,181.8125 Q19.8125,183.9063 20.5,184.9766 Q21.1875,186.0469 22.5313,186.0469 Q23.1563,186.0469 23.75,185.7734 Q24.3438,185.5 24.9688,184.9219 L24.9688,187.6406 Z " fill="#000000"/><text fill="#000000" font-family="sans-serif" font-size="12" lengthAdjust="spacing" textLength="36" x="36" y="186.1543">Name</text><line style="stroke:#A80036;stroke-width:1.5;" x1="8" x2="74" y1="198" y2="198"/><line style="stroke:#A80036;stroke-width:1.5;" x1="8" x2="74" y1="206" y2="206"/><rect fill="#FEFECE" filter="url(#f1o9grss0j4jx4)" height="48" id="Address" style="stroke:#A80036;stroke-width:1.5;" width="83" x="110.5" y="166"/><ellipse cx="125.5" cy="182" fill="#ADD1B2" rx="11" ry="11" style="stroke:#A80036;stroke-width:1.0;"/><path d="M128.4688,187.6406 Q127.8906,187.9375 127.25,188.0859 Q126.6094,188.2344 125.9063,188.2344 Q123.4063,188.2344 122.0859,186.5859 Q120.7656,184.9375 120.7656,181.8125 Q120.7656,178.6875 122.0859,177.0313 Q123.4063,175.375 125.9063,175.375 Q126.6094,175.375 127.2578,175.5313 Q127.9063,175.6875 128.4688,175.9844 L128.4688,178.7031 Q127.8438,178.125 127.25,177.8516 Q126.6563,177.5781 126.0313,177.5781 Q124.6875,177.5781 124,178.6484 Q123.3125,179.7188 123.3125,181.8125 Q123.3125,183.9063 124,184.9766 Q124.6875,186.0469 126.0313,186.0469 Q126.6563,186.0469 127.25,185.7734 Q127.8438,185.5 128.4688,184.9219 L128.4688,187.6406 Z " fill="#000000"/><text fill="#000000" font-family="sans-serif" font-size="12" lengthAdjust="spacing" textLength="51" x="139.5" y="186.1543">Address</text><line style="stroke:#A80036;stroke-width:1.5;" x1="111.5" x2="192.5" y1="198" y2="198"/><line style="stroke:#A80036;stroke-width:1.5;" x1="111.5" x2="192.5" y1="206" y2="206"/><path codeLine="9" d="M70.5356,118.3091 C63.6136,135.1107 56.5186,152.332 51.0179,165.6838 " fill="none" id="Student-backto-Name" style="stroke:#A80036;stroke-width:1.0;"/><polygon fill="#A80036" points="75.52,106.2105,69.536,110.2344,70.9488,117.3057,76.9328,113.2818,75.52,106.2105" style="stroke:#A80036;stroke-width:1.0;"/><text fill="#000000" font-family="sans-serif" font-size="13" lengthAdjust="spacing" textLength="8" x="64.0775" y="126.3166">1</text><text fill="#000000" font-family="sans-serif" font-size="13" lengthAdjust="spacing" textLength="8" x="44.4848" y="155.0117">1</text><path codeLine="10" d="M121.9274,118.3091 C128.9753,135.1107 136.1992,152.332 141.7999,165.6838 " fill="none" id="Student-backto-Address" style="stroke:#A80036;stroke-width:1.0;"/><polygon fill="#FFFFFF" points="116.8523,106.2105,115.4846,113.2907,121.4942,117.2763,122.8619,110.1961,116.8523,106.2105" style="stroke:#A80036;stroke-width:1.0;"/><text fill="#000000" font-family="sans-serif" font-size="13" lengthAdjust="spacing" textLength="24" x="94.0972" y="126.3166">1..3</text><text fill="#000000" font-family="sans-serif" font-size="13" lengthAdjust="spacing" textLength="8" x="130.3386" y="155.0117">1</text></g></svg>