<?xml version="1.0" encoding="UTF-8" standalone="no"?><svg xmlns="http://www.w3.org/2000/svg" xmlns:xlink="http://www.w3.org/1999/xlink" contentScriptType="application/ecmascript" contentStyleType="text/css" height="171px" preserveAspectRatio="none" style="width:249px;height:171px;background:#FFFFFF;" version="1.1" viewBox="0 0 249 171" width="249px" zoomAndPan="magnify"><defs><filter height="300%" id="f1sq4auvdf3uxy" width="300%" x="-1" y="-1"><feGaussianBlur result="blurOut" stdDeviation="2.0"/><feColorMatrix in="blurOut" result="blurOut2" type="matrix" values="0 0 0 0 0 0 0 0 0 0 0 0 0 0 0 0 0 0 .4 0"/><feOffset dx="4.0" dy="4.0" in="blurOut2" result="blurOut3"/><feBlend in="SourceGraphic" in2="blurOut3" mode="normal"/></filter></defs><g><rect codeLine="2" fill="#FEFECE" filter="url(#f1sq4auvdf3uxy)" height="150.4375" id="Car" style="stroke:#A80036;stroke-width:1.5;" width="228" x="7" y="7"/><ellipse cx="106.25" cy="23" fill="#ADD1B2" rx="11" ry="11" style="stroke:#A80036;stroke-width:1.0;"/><path d="M109.2188,28.6406 Q108.6406,28.9375 108,29.0859 Q107.3594,29.2344 106.6563,29.2344 Q104.1563,29.2344 102.8359,27.5859 Q101.5156,25.9375 101.5156,22.8125 Q101.5156,19.6875 102.8359,18.0313 Q104.1563,16.375 106.6563,16.375 Q107.3594,16.375 108.0078,16.5313 Q108.6563,16.6875 109.2188,16.9844 L109.2188,19.7031 Q108.5938,19.125 108,18.8516 Q107.4063,18.5781 106.7813,18.5781 Q105.4375,18.5781 104.75,19.6484 Q104.0625,20.7188 104.0625,22.8125 Q104.0625,24.9063 104.75,25.9766 Q105.4375,27.0469 106.7813,27.0469 Q107.4063,27.0469 108,26.7734 Q108.5938,26.5 109.2188,25.9219 L109.2188,28.6406 Z " fill="#000000"/><text fill="#000000" font-family="sans-serif" font-size="12" lengthAdjust="spacing" textLength="21" x="126.75" y="27.1543">Car</text><line style="stroke:#A80036;stroke-width:1.5;" x1="8" x2="234" y1="39" y2="39"/><rect fill="none" height="6" style="stroke:#C82930;stroke-width:1.0;" width="6" x="15" y="47"/><text fill="#000000" font-family="sans-serif" font-size="11" lengthAdjust="spacing" text-decoration="underline" textLength="122" x="27" y="53.2104">numberOfObjects: int</text><rect fill="none" height="6" style="stroke:#C82930;stroke-width:1.0;" width="6" x="15" y="59.8047"/><text fill="#000000" font-family="sans-serif" font-size="11" lengthAdjust="spacing" textLength="82" x="27" y="66.0151">radius: double</text><line style="stroke:#A80036;stroke-width:1.5;" x1="8" x2="234" y1="72.6094" y2="72.6094"/><ellipse cx="18" cy="83.6094" fill="#84BE84" rx="3" ry="3" style="stroke:#038048;stroke-width:1.0;"/><text fill="#000000" font-family="sans-serif" font-size="11" lengthAdjust="spacing" textLength="40" x="27" y="86.8198">Circle()</text><ellipse cx="18" cy="96.4141" fill="#84BE84" rx="3" ry="3" style="stroke:#038048;stroke-width:1.0;"/><text fill="#000000" font-family="sans-serif" font-size="11" lengthAdjust="spacing" textLength="122" x="27" y="99.6245">Circle(radius: double)</text><ellipse cx="18" cy="109.2188" fill="#84BE84" rx="3" ry="3" style="stroke:#038048;stroke-width:1.0;"/><text fill="#000000" font-family="sans-serif" font-size="11" lengthAdjust="spacing" text-decoration="underline" textLength="149" x="27" y="112.4292">getNumberOfObjects(): int</text><ellipse cx="18" cy="122.0234" fill="#84BE84" rx="3" ry="3" style="stroke:#038048;stroke-width:1.0;"/><text fill="#000000" font-family="sans-serif" font-size="11" lengthAdjust="spacing" textLength="110" x="27" y="125.2339">getRadius(): double</text><ellipse cx="18" cy="134.8281" fill="#84BE84" rx="3" ry="3" style="stroke:#038048;stroke-width:1.0;"/><text fill="#000000" font-family="sans-serif" font-size="11" lengthAdjust="spacing" textLength="202" x="27" y="138.0386">setRadius(newRadius: double): void</text><ellipse cx="18" cy="147.6328" fill="#84BE84" rx="3" ry="3" style="stroke:#038048;stroke-width:1.0;"/><text fill="#000000" font-family="sans-serif" font-size="11" lengthAdjust="spacing" textLength="98" x="27" y="150.8433">getArea(): double</text></g></svg>