<svg viewBox="0 0 330 200" xmlns="http://www.w3.org/2000/svg"><g><g><g><g><g><line x1="42.390625" y1="176" x2="37.390625" y2="176" style="visibility: inherit;" fill="rgb(0, 0, 0)" stroke="rgb(204, 204, 204)" stroke-width="1px"></line><line x1="42.390625" y1="150.85714285714286" x2="37.390625" y2="150.85714285714286" style="visibility: inherit;" fill="rgb(0, 0, 0)" stroke="rgb(204, 204, 204)" stroke-width="1px"></line><line x1="42.390625" y1="125.71428571428572" x2="37.390625" y2="125.71428571428572" style="visibility: inherit;" fill="rgb(0, 0, 0)" stroke="rgb(204, 204, 204)" stroke-width="1px"></line><line x1="42.390625" y1="100.57142857142857" x2="37.390625" y2="100.57142857142857" style="visibility: inherit;" fill="rgb(0, 0, 0)" stroke="rgb(204, 204, 204)" stroke-width="1px"></line><line x1="42.390625" y1="75.42857142857143" x2="37.390625" y2="75.42857142857143" style="visibility: inherit;" fill="rgb(0, 0, 0)" stroke="rgb(204, 204, 204)" stroke-width="1px"></line><line x1="42.390625" y1="50.285714285714285" x2="37.390625" y2="50.285714285714285" style="visibility: inherit;" fill="rgb(0, 0, 0)" stroke="rgb(204, 204, 204)" stroke-width="1px"></line><line x1="42.390625" y1="25.142857142857153" x2="37.390625" y2="25.142857142857153" style="visibility: inherit;" fill="rgb(0, 0, 0)" stroke="rgb(204, 204, 204)" stroke-width="1px"></line><line x1="42.390625" y1="0" x2="37.390625" y2="0" style="visibility: inherit;" fill="rgb(0, 0, 0)" stroke="rgb(204, 204, 204)" stroke-width="1px"></line></g><g transform="translate(32.390625, 0)"><text x="0" y="176" dx="0em" dy="0.3em" style="text-anchor: end; visibility: hidden; font-family: Roboto, sans-serif; font-size: 12px; font-weight: 200;" fill="rgb(33, 33, 33)" stroke="none" stroke-width="1px">0.5</text><text x="0" y="150.85714285714286" dx="0em" dy="0.3em" style="text-anchor: end; visibility: inherit; font-family: Roboto, sans-serif; font-size: 12px; font-weight: 200;" fill="rgb(33, 33, 33)" stroke="none" stroke-width="1px">1</text><text x="0" y="125.71428571428572" dx="0em" dy="0.3em" style="text-anchor: end; visibility: inherit; font-family: Roboto, sans-serif; font-size: 12px; font-weight: 200;" fill="rgb(33, 33, 33)" stroke="none" stroke-width="1px">1.5</text><text x="0" y="100.57142857142857" dx="0em" dy="0.3em" style="text-anchor: end; visibility: inherit; font-family: Roboto, sans-serif; font-size: 12px; font-weight: 200;" fill="rgb(33, 33, 33)" stroke="none" stroke-width="1px">2</text><text x="0" y="75.42857142857143" dx="0em" dy="0.3em" style="text-anchor: end; visibility: inherit; font-family: Roboto, sans-serif; font-size: 12px; font-weight: 200;" fill="rgb(33, 33, 33)" stroke="none" stroke-width="1px">2.5</text><text x="0" y="50.285714285714285" dx="0em" dy="0.3em" style="text-anchor: end; visibility: inherit; font-family: Roboto, sans-serif; font-size: 12px; font-weight: 200;" fill="rgb(33, 33, 33)" stroke="none" stroke-width="1px">3</text><text x="0" y="25.142857142857153" dx="0em" dy="0.3em" style="text-anchor: end; visibility: inherit; font-family: Roboto, sans-serif; font-size: 12px; font-weight: 200;" fill="rgb(33, 33, 33)" stroke="none" stroke-width="1px">3.5</text><text x="0" y="0" dx="0em" dy="0.3em" style="text-anchor: end; visibility: hidden; font-family: Roboto, sans-serif; font-size: 12px; font-weight: 200;" fill="rgb(33, 33, 33)" stroke="none" stroke-width="1px">4</text></g><line x1="42.390625" y1="0" x2="42.390625" y2="176" fill="rgb(0, 0, 0)" stroke="rgb(204, 204, 204)" stroke-width="1px"></line></g></g><g transform="translate(42, 0)" clip-path="url(#clip_0)"><clipPath id="clip_0"><rect width="287" height="176"></rect></clipPath><g><g><g><line x1="0" y1="0" x2="0" y2="176" fill="rgb(0, 0, 0)" stroke="rgb(66, 66, 66)" stroke-width="1px" opacity="0.25"></line><line x1="35.951171875" y1="0" x2="35.951171875" y2="176" fill="rgb(0, 0, 0)" stroke="rgb(66, 66, 66)" stroke-width="1px" opacity="0.25"></line><line x1="71.90234375" y1="0" x2="71.90234375" y2="176" fill="rgb(0, 0, 0)" stroke="rgb(66, 66, 66)" stroke-width="1px" opacity="0.25"></line><line x1="107.853515625" y1="0" x2="107.853515625" y2="176" fill="rgb(0, 0, 0)" stroke="rgb(66, 66, 66)" stroke-width="1px" opacity="0.25"></line><line x1="143.8046875" y1="0" x2="143.8046875" y2="176" fill="rgb(0, 0, 0)" stroke="rgb(66, 66, 66)" stroke-width="1px" opacity="0.25"></line><line x1="179.755859375" y1="0" x2="179.755859375" y2="176" fill="rgb(0, 0, 0)" stroke="rgb(66, 66, 66)" stroke-width="1px" opacity="0.25"></line><line x1="215.70703125" y1="0" x2="215.70703125" y2="176" fill="rgb(0, 0, 0)" stroke="rgb(66, 66, 66)" stroke-width="1px" opacity="0.25"></line><line x1="251.658203125" y1="0" x2="251.658203125" y2="176" fill="rgb(0, 0, 0)" stroke="rgb(66, 66, 66)" stroke-width="1px" opacity="0.25"></line><line x1="287.609375" y1="0" x2="287.609375" y2="176" fill="rgb(0, 0, 0)" stroke="rgb(66, 66, 66)" stroke-width="1px" opacity="0.25"></line></g><g><line x1="0" y1="176" x2="287.609375" y2="176" fill="rgb(0, 0, 0)" stroke="rgb(66, 66, 66)" stroke-width="1px" opacity="0.25"></line><line x1="0" y1="150.85714285714286" x2="287.609375" y2="150.85714285714286" fill="rgb(0, 0, 0)" stroke="rgb(66, 66, 66)" stroke-width="1px" opacity="0.25"></line><line x1="0" y1="125.71428571428572" x2="287.609375" y2="125.71428571428572" fill="rgb(0, 0, 0)" stroke="rgb(66, 66, 66)" stroke-width="1px" opacity="0.25"></line><line x1="0" y1="100.57142857142857" x2="287.609375" y2="100.57142857142857" fill="rgb(0, 0, 0)" stroke="rgb(66, 66, 66)" stroke-width="1px" opacity="0.25"></line><line x1="0" y1="75.42857142857143" x2="287.609375" y2="75.42857142857143" fill="rgb(0, 0, 0)" stroke="rgb(66, 66, 66)" stroke-width="1px" opacity="0.25"></line><line x1="0" y1="50.285714285714285" x2="287.609375" y2="50.285714285714285" fill="rgb(0, 0, 0)" stroke="rgb(66, 66, 66)" stroke-width="1px" opacity="0.25"></line><line x1="0" y1="25.142857142857153" x2="287.609375" y2="25.142857142857153" fill="rgb(0, 0, 0)" stroke="rgb(66, 66, 66)" stroke-width="1px" opacity="0.25"></line><line x1="0" y1="0" x2="287.609375" y2="0" fill="rgb(0, 0, 0)" stroke="rgb(66, 66, 66)" stroke-width="1px" opacity="0.25"></line></g></g></g><g><g><line x1="0" y1="201.14285714285714" x2="287.609375" y2="201.14285714285714" fill="rgb(0, 0, 0)" stroke="rgb(153, 153, 153)" stroke-width="1.5px"></line></g></g><g><g><line x1="35.951171875" y1="0" x2="35.951171875" y2="176" fill="rgb(0, 0, 0)" stroke="rgb(153, 153, 153)" stroke-width="1.5px"></line></g></g><g><g><g><g><g><path stroke="rgb(255, 112, 67)" stroke-width="2px" d="M40.9843359375,-6.401205373567812L41.703359375,0.4215473460247203L42.4223828125,12.002404431261619L43.141406249999996,22.644101428192354L43.8604296875,28.765487705619197L44.579453125,24.950881730405385L45.2984765625,30.7415906529654L46.0175,24.383800185182693L46.736523437500004,38.82175177057429L47.455546875,37.0026063163022L48.1745703125,30.980686972871382L48.89359375,24.360180087783903L49.6126171875,19.407635627592683L50.331640625,25.320374389161316L51.0506640625,14.524391057715176L51.769687499999996,14.373571692566587L52.4887109375,15.17263707299548L53.207734375,24.964614952213896L53.9267578125,27.421188002958488L54.64578125,25.426361092151595L55.3648046875,30.784137995483306L56.083828125000004,33.868418871142495L56.8028515625,38.03474489365369L57.521875,38.787085855839855L58.2408984375,37.080484568388805L58.959921875,41.29777799786315L59.6789453125,34.0397800117083L60.39796875,22.85819085861335L61.116992187499996,29.058722929389L61.836015625,35.7073823717421L62.5550390625,23.878064536864617L63.2740625,30.493985699041367L63.9930859375,46.09573875458083L64.712109375,37.49591060520974L65.4311328125,35.471183039664155L66.15015625000001,27.53444553126733L66.86917968750001,36.408624025758144L67.58820312499999,47.07431874267981L68.30722656249999,53.68914548275477L69.02625,54.49133043865558L69.7452734375,65.43099677457295L70.464296875,62.91775138849742L71.1833203125,73.48253271945252L71.90234375,72.61780127074992L72.6213671875,65.54824932682276L73.340390625,66.8639142269769L74.0594140625,70.38938770071042L74.7784375,71.17430043173923L75.49746093750001,71.24977916165139L76.21648437500001,67.02952019758911L76.9355078125,69.25545785799213L77.65453125,70.34178564178754L78.3735546875,65.71448244424957L79.092578125,73.69895119769406L79.8116015625,83.28786701242134L80.530625,73.53079539408022L81.2496484375,77.44884830171762L81.968671875,81.0009948000968L82.6876953125,79.70208187921382L83.40671875,76.56508051700125L84.1257421875,76.48541251592685L84.844765625,76.11875125175466L85.56378906249999,71.84291837049871L86.28281249999999,67.53969385293293L87.0018359375,65.10920104893316L87.720859375,50.22875939413217L88.4398828125,59.838654146530374L89.15890625,76.2134655234658L89.8779296875,79.17731621099789L90.596953125,72.42471302177397L91.3159765625,76.61327191486357L92.035,89.10456309501382L92.7540234375,84.93046404214995L93.47304687500001,87.9348790084412L94.19207031250001,90.48045629861508L94.91109375,94.04568383174521L95.6301171875,102.20511693662169L96.349140625,89.1362718220668L97.0681640625,89.57870985528845L97.7871875,96.43767855254092L98.5062109375,83.14054115543846L99.225234375,77.86522193344757L99.9442578125,61.75689628744348L100.66328125,68.80225084883968L101.3823046875,58.018281851103L102.101328125,68.18197690629731L102.8203515625,73.55786174167773L103.53937499999999,78.37207946452833L104.25839843749999,86.50432661163559L104.977421875,89.80565129803226L105.6964453125,77.07019144424949L106.41546875,88.34297265297246L107.1344921875,94.00284390942235L107.853515625,97.11579895387551L108.5725390625,103.01963763170205L109.2915625,99.76997203974025L110.0105859375,102.85357147150037L110.729609375,92.81541708038034L111.44863281250001,85.46902602752765L112.16765625000001,90.1576208494251L112.8866796875,104.72960829956891L113.605703125,108.50105044313331L114.3247265625,100.22565848658269L115.04375,98.6199852579291L115.7627734375,95.63635010954077L116.481796875,106.36152100177318L117.2008203125,100.7580402549238L117.91984375,98.42823748117569L118.6388671875,99.24358462454202L119.357890625,101.43479260069789L120.0769140625,100.3737982639745L120.7959375,95.63379464462531L121.51496093749999,100.18879421239521L122.23398437499999,109.4268882964329L122.9530078125,112.41418892397189L123.67203125,110.55302548124236L124.3910546875,104.3120683022063L125.110078125,106.38455149141672L125.8291015625,104.53868086601894L126.548125,115.83967655471847L127.2671484375,122.24329552176064L127.986171875,115.75255363108585L128.7051953125,119.50623986318321L129.42421875,110.13326773373751L130.1432421875,109.60427592324771L130.862265625,105.97840841955623L131.5812890625,114.86299432605382L132.30031250000002,121.8083266655321L133.01933593750002,110.61684161981995L133.73835937500002,90.17751404985422L134.45738281250001,96.59531751298945L135.17640624999999,109.00829613178114L135.89542968749998,105.88781800791826L136.61445312499998,113.16667829337435L137.33347656249998,114.97045418977615L138.0525,124.29633200412025L138.7715234375,107.11102254373775L139.490546875,106.09009517529066L140.2095703125,109.56609236182007L140.92859375,108.48727491143296L141.6476171875,116.01836104101953L142.366640625,119.917761235287L143.0856640625,121.48578661651769L143.8046875,123.35500691471165L144.5237109375,120.51384547051231L145.242734375,105.76727778095514L145.9617578125,107.21142261307624L146.68078125,103.2621683711033L147.3998046875,110.7297487257443L148.118828125,104.97865798795866L148.8378515625,106.58190231411375L149.556875,104.79914877284L150.2758984375,113.76642386994904L150.99492187500002,119.86523498420298L151.7139453125,118.93805076065124L152.43296875000001,118.57898815845408L153.15199218749999,115.15155526147494L153.871015625,113.51830531510126L154.59003906249998,114.7938047352985L155.3090625,116.8689927966316L156.0280859375,105.4687295225214L156.747109375,109.6414674541605L157.4661328125,105.1842910895189L158.18515625,102.50140036449517L158.9041796875,108.59979824505035L159.623203125,119.51636387490402L160.3422265625,113.10182536814477L161.06125,119.90051451295191L161.7802734375,125.84269877029433L162.499296875,133.97581028928698L163.2183203125,137.87023344542783L163.93734375,128.52486666765964L164.6563671875,124.66920299746585L165.375390625,121.35835490955708L166.0944140625,121.84841322598876L166.8134375,126.51647633059208L167.5324609375,128.90758245668715L168.251484375,123.53069894429751L168.97050781250002,129.11928802878342L169.68953125,126.19947085465193L170.40855468750001,133.6800290295443L171.12757812499999,119.81066731209222L171.8466015625,125.2846175207814L172.56562499999998,126.41745832358116L173.2846484375,133.8056153891006L174.003671875,134.8000163385306L174.7226953125,131.29895129837806L175.44171875,131.76572228595953L176.1607421875,132.92627682954893L176.879765625,133.05455770959657L177.5987890625,135.99632209153077L178.3178125,138.91377499839535L179.0368359375,139.17699569561393L179.755859375,134.21154457626588L180.4748828125,136.0102611222043L181.19390625,126.32210276747223L181.9129296875,128.00762987510882L182.631953125,131.24895202069098L183.3509765625,128.66156908152252L184.07,129.51641767969105L184.7890234375,132.2735417161878L185.508046875,138.35045944045348L186.2270703125,144.39655238989232L186.94609375000002,142.7219235756415L187.6651171875,138.46346424984912L188.38414062500001,139.3866733906659L189.10316406249999,141.748132487962L189.8221875,146.02784172352364L190.54121093749998,147.35442941806778L191.260234375,143.43014302659785L191.9792578125,149.82776040252062L192.69828125,146.23162711912008L193.4173046875,150.56369446297344L194.136328125,148.02921446214137L194.8553515625,149.39499527031128L195.574375,145.52840380468962L196.2933984375,144.22802463395828L197.012421875,133.59893306916587L197.7314453125,117.66271963249005L198.45046875,124.35852079569673L199.1694921875,128.81972748839752L199.888515625,126.78168567884988L200.6075390625,132.90256058995314L201.3265625,134.41344670845655L202.0455859375,140.73446457860277L202.764609375,140.18346602349135L203.4836328125,130.83956406604744L204.20265625,136.22921041001084L204.92167968750002,135.39328335115988L205.640703125,134.84714757717592L206.35972656250001,126.80197323069089L207.07874999999999,132.9769743374351L207.7977734375,133.1521974652099L208.51679687499998,138.32551313471328L209.2358203125,142.6681748800868L209.95484375,144.9555623396762L210.6738671875,147.77908553103524L211.392890625,144.18493737074377L212.1119140625,146.2686323964755L212.8309375,148.250285724696L213.5499609375,151.46692832458362L214.268984375,147.68316055264165L214.9880078125,150.0924663502691L215.70703125,151.78570605338146L216.4260546875,150.71712404499758L217.145078125,156.60691457101467L217.8641015625,155.6568436372807L218.583125,157.88414478562783L219.3021484375,146.1429679007217L220.021171875,150.14234772019108L220.7401953125,142.96939949282648L221.45921875,145.5288878854221L222.1782421875,140.88447256127753L222.89726562500002,134.94683270692337L223.6162890625,141.5638414195394L224.33531250000001,144.4018114298402L225.05433593749999,147.9313841874319L225.773359375,141.17713177259137L226.49238281249998,137.79715063192936L227.21140625,138.7596005678319L227.9304296875,143.45100066373536L228.649453125,150.26676638920145L229.3684765625,146.2549441689455L230.0875,128.81140164028338L230.8065234375,131.87556461659196L231.525546875,115.55455527418337L232.2445703125,117.60170642846428L232.96359375,126.04666600548927L233.6826171875,128.07574145147638L234.401640625,126.9800181219821L235.1206640625,133.11949919558106L235.8396875,136.33742339701087L236.5587109375,139.01196800666088L237.277734375,134.67893057129547L237.9967578125,138.56911386779024L238.71578125,140.0250114033618L239.4348046875,146.63761258477953L240.153828125,144.26335425506343L240.87285156250002,146.41796442584672L241.591875,127.42466875096592L242.31089843750001,135.1309959123157L243.02992187499999,139.8217808532751L243.7489453125,138.94294977133922L244.46796874999998,112.71719323180324L245.1869921875,123.41524690639989L245.906015625,125.77055467111653L246.6250390625,129.9147600245044L247.3440625,135.48382964466035L248.0630859375,136.644291920417L248.782109375,141.12201298525974L249.5011328125,134.5673835119232L250.22015625,134.06010817987172L250.9391796875,141.2459983715551L251.658203125,147.32039283769987L252.3772265625,154.23307819081646L253.09625,160.71652499229302L253.8152734375,160.74196646777506L254.534296875,160.4562803369163" style="fill: none;" fill="none"></path></g></g></g></g><g opacity="0.2"><g><g><g><path stroke="rgb(255, 112, 67)" stroke-width="2px" d="M37.38921875,-164.18707057407926L38.108242187500004,57.36112322126116L38.827265625,39.06044006347656L39.5462890625,21.364892142159597L40.2653125,-48.589935302734375L40.9843359375,22.402136666434153L41.703359375,26.689576285226003L42.4223828125,59.74510955810547L43.141406249999996,68.97986602783203L43.8604296875,56.62419237409319L44.579453125,6.952089582170753L45.2984765625,58.888084411621094L46.0175,-7.2877589634486775L46.736523437500004,112.22870418003627L47.455546875,27.594605582101003L48.1745703125,-0.6097630092075725L49.6126171875,-7.151227678571434L50.331640625,57.29806082589285L51.0506640625,-44.281646728515625L51.769687499999996,13.54708535330637L52.4887109375,19.57387215750559L53.207734375,79.13170078822544L53.9267578125,41.06011744907924L54.64578125,14.316746303013401L55.3648046875,60.70105634416853L56.083828125000004,51.12884412493025L56.8028515625,61.39457484654018L57.521875,43.01207842145647L58.2408984375,27.483539036342066L58.959921875,65.0407682146345L59.6789453125,-6.862123761858253L60.39796875,-40.20721653529576L61.116992187499996,64.05511256626674L61.836015625,73.25555637904576L62.5550390625,-42.96182032993862L63.2740625,67.89249529157365L63.9930859375,134.32184110369002L64.712109375,-11.150318690708694L65.4311328125,24.014963422502785L66.15015625000001,-17.38296944754463L66.86917968750001,86.64105333600725L67.58820312499999,107.4574944632394L68.30722656249999,91.14376831054688L69.02625,59.034015110560816L69.7452734375,127.3873154776437L70.464296875,48.6828863961356L71.1833203125,133.32511956351144L71.90234375,67.719361441476L72.6213671875,25.499303545270653L73.340390625,74.31747436523438L74.0594140625,90.36280168805803L74.7784375,75.62133135114397L75.49746093750001,71.67742592947825L76.21648437500001,43.11785779680525L76.9355078125,81.8676975795201L77.65453125,76.49705941336497L78.3735546875,39.49521092006138L79.092578125,118.9411746433803L79.8116015625,137.6218926565988L80.530625,18.243459429059715L81.2496484375,99.65021405901228L81.968671875,101.12910515921456L82.6876953125,72.341799054827L83.40671875,58.78919873918806L84.1257421875,76.03397042410715L84.844765625,74.04104287283762L85.56378906249999,47.61358315604075L86.28281249999999,43.15508379255022L87.0018359375,51.336566380092066L87.720859375,-34.09292166573662L88.4398828125,114.29427337646484L89.15890625,169.0034100668771L89.8779296875,95.97236960274833L90.596953125,34.16015625L91.3159765625,100.34833635602678L92.035,159.8882863180978L92.7540234375,61.27730996268137L93.47304687500001,104.95985194614956L94.19207031250001,104.90536172049386L94.91109375,114.24860109601701L95.6301171875,148.44182913643974L96.349140625,15.079585484095974L97.0681640625,92.08585575648716L97.7871875,135.30512891496932L98.5062109375,7.790160042898998L99.225234375,47.97176797049387L99.9442578125,-29.5235595703125L100.66328125,108.72590582711356L101.3823046875,-3.0908486502511217L102.101328125,125.77622713361467L102.8203515625,104.02119936261857L103.53937499999999,105.65263911655971L104.25839843749999,132.5870497567313L104.977421875,108.51315416608537L105.6964453125,4.902597699846535L106.41546875,152.22205707005094L107.1344921875,126.07544381277901L107.853515625,114.75587572370256L108.5725390625,136.47472054617745L109.2915625,81.3552017211914L110.0105859375,120.32730048043388L110.729609375,35.932545253208716L111.44863281250001,43.839478628976L112.16765625000001,116.72632380894252L112.8866796875,187.30420112609863L113.605703125,129.87255532400948L114.3247265625,53.33177185058594L115.04375,89.52117047991072L115.7627734375,78.72908455984934L116.481796875,167.13748850141252L117.2008203125,69.0049830845424L117.91984375,85.22602190290178L118.6388671875,103.86388506208147L119.357890625,113.85163770403182L120.0769140625,94.36149706159318L120.7959375,68.77377428327287L121.51496093749999,126.00045830862862L122.23398437499999,161.77608789716447L122.9530078125,129.34222575596402L123.67203125,100.00643266950334L124.3910546875,68.94664437430247L125.110078125,118.12862287248885L125.8291015625,94.07874734061105L126.548125,179.8786520276751L127.2671484375,158.53046962193082L127.986171875,78.9716829572405L128.7051953125,140.77712849208285L129.42421875,57.019759041922434L130.1432421875,106.60665566580636L130.862265625,85.43182591029576L131.5812890625,165.20898110525948L132.30031250000002,161.16520990644182L133.01933593750002,47.19842638288225L133.73835937500002,-25.645342145647316L134.45738281250001,132.96287046160018L135.17640624999999,179.34850828988212L135.89542968749998,88.20510864257812L136.61445312499998,154.41355323791504L137.33347656249998,125.19185093470982L138.0525,177.142972946167L138.7715234375,9.727602277483253L139.490546875,100.30484008789062L140.2095703125,129.26340975080217L140.92859375,102.37397602626255L141.6476171875,158.69451577322823L142.366640625,142.01436233520508L143.0856640625,130.37126377650668L143.8046875,133.9472552708217L144.5237109375,104.41393062046596L145.242734375,22.203394208635597L145.9617578125,115.3949099949428L146.68078125,80.88306100027903L147.3998046875,153.04603740147184L148.118828125,72.38914380754744L148.8378515625,115.6669534955706L149.556875,94.69687870570591L150.2758984375,164.5809827532087L150.99492187500002,154.42516463143485L151.7139453125,113.68400682721818L152.43296875000001,116.5443000793457L153.15199218749999,95.72943551199776L153.871015625,104.2632222856794L154.59003906249998,122.02163478306362L155.3090625,128.6283918108259L156.0280859375,40.867237636021216L156.747109375,133.28698240007674L157.4661328125,79.92695835658482L158.18515625,87.29835292271206L158.9041796875,143.1573862348284L159.623203125,181.37690244402202L160.3422265625,76.75277382986887L161.06125,158.42641966683524L161.7802734375,159.5150762285505L162.499296875,180.0634422302246L163.2183203125,159.93863133021762L163.93734375,75.56778826032365L164.6563671875,102.82044219970703L165.375390625,102.59688241141183L166.0944140625,124.62541035243443L166.8134375,152.96883392333984L167.5324609375,142.45718383789062L168.251484375,93.06169237409318L168.97050781250002,160.7879595075335L169.68953125,109.65384020124162L170.40855468750001,176.0698586872646L171.12757812499999,41.21761757986887L171.8466015625,156.30366870335172L172.56562499999998,132.83688953944613L173.2846484375,175.67183876037598L174.003671875,140.43495505196708L174.7226953125,111.45958273751395L175.44171875,134.41075788225447L176.1607421875,139.5027525765555L176.879765625,133.7814826965332L177.5987890625,152.6663202558245L178.3178125,155.44600813729423L179.0368359375,140.66857964651925L179.755859375,106.0739882332938L180.4748828125,146.20298821585519L181.19390625,71.42253875732422L181.9129296875,137.55895015171598L182.631953125,149.61644417898995L183.3509765625,113.99973242623466L184.07,134.36055973597934L184.7890234375,147.89724458966936L185.508046875,172.7863265446254L186.2270703125,178.6577457700457L186.94609375000002,133.232360294887L187.6651171875,114.33219473702567L188.38414062500001,144.61819185529436L189.10316406249999,155.12973403930664L189.8221875,170.2795273917062L190.54121093749998,154.8717596871512L191.260234375,121.19252014160156L191.9792578125,186.08092553274972L192.69828125,125.8535385131836L193.4173046875,175.11207607814242L194.136328125,133.66716112409318L194.8553515625,157.1344198499407L195.574375,123.61771883283342L196.2933984375,136.8592093331473L197.012421875,73.36741420200893L197.7314453125,27.35751015799387L198.45046875,162.30139405386788L199.1694921875,154.09989874703544L199.888515625,115.23278209141323L200.6075390625,167.58751841953824L201.3265625,142.97513471330916L202.0455859375,176.5535658427647L202.764609375,137.06114087785994L203.4836328125,77.89078630719865L204.20265625,166.77053969247L204.92167968750002,130.65636335100447L205.640703125,131.75237819126676L206.35972656250001,81.21265193394252L207.07874999999999,167.9686472756522L207.7977734375,134.14512852260043L208.51679687499998,167.64096859523227L209.2358203125,167.27659143720354L209.95484375,157.9174246106829L210.6738671875,163.77905028206962L211.392890625,123.81809779575893L212.1119140625,158.07623754228865L212.8309375,159.47965458461215L213.5499609375,169.6945697239467L214.268984375,126.2418098449707L214.9880078125,163.7451992034912L215.70703125,161.38073103768485L216.4260546875,144.66182599748885L217.145078125,189.98239421844482L217.8641015625,150.27310834612166L218.583125,170.50551795959473L219.3021484375,79.60963221958706L220.021171875,172.80550003051758L220.7401953125,102.32269287109375L221.45921875,160.03265544346402L222.1782421875,114.56611905779158L222.89726562500002,101.30020686558315L223.6162890625,179.0602241243635L224.33531250000001,160.4836414882115L225.05433593749999,167.93229648045133L225.773359375,102.90303475516183L226.49238281249998,118.64392416817802L227.21140625,144.21348353794644L227.9304296875,170.0356012071882L228.649453125,188.8894388335092L229.3684765625,123.52128492082869L230.0875,29.96466064453125L230.8065234375,149.23915481567383L231.525546875,23.06883566720144L232.2445703125,129.20222963605607L232.96359375,173.90143694196428L233.6826171875,139.57383564540316L234.401640625,120.77091925484794L235.1206640625,167.90989194597518L235.8396875,154.572327205113L236.5587109375,154.16772079467773L237.277734375,110.12505177089146L237.9967578125,160.61348588126046L238.71578125,148.2750974382673L239.4348046875,184.10901927947998L240.153828125,130.80922372000558L240.87285156250002,158.6274220602853L241.591875,19.79599325997488L242.31089843750001,178.8001831599644L243.02992187499999,166.40289551871163L243.7489453125,133.96290697370256L244.46796874999998,-35.89542715890068L245.1869921875,184.0375510624477L245.906015625,139.11729867117745L246.6250390625,153.39859036036898L247.3440625,167.0418908255441L248.0630859375,143.22024481637138L248.782109375,166.49576568603516L249.5011328125,97.42448316301619L250.22015625,131.1855479649135L250.9391796875,181.96604279109408L253.09625,197.456056867327L253.8152734375,160.88613482884L254.534296875,158.8373922620501" style="fill: none;" fill="none"></path></g></g></g></g></g></g><g transform="translate(42, 176)" clip-path="url(#clip_1)"><clipPath id="clip_1"><rect width="287" height="24"></rect></clipPath><g><g><line x1="0" y1="0" x2="0" y2="5" style="visibility: inherit;" fill="rgb(0, 0, 0)" stroke="rgb(204, 204, 204)" stroke-width="1px"></line><line x1="35.951171875" y1="0" x2="35.951171875" y2="5" style="visibility: inherit;" fill="rgb(0, 0, 0)" stroke="rgb(204, 204, 204)" stroke-width="1px"></line><line x1="71.90234375" y1="0" x2="71.90234375" y2="5" style="visibility: inherit;" fill="rgb(0, 0, 0)" stroke="rgb(204, 204, 204)" stroke-width="1px"></line><line x1="107.853515625" y1="0" x2="107.853515625" y2="5" style="visibility: inherit;" fill="rgb(0, 0, 0)" stroke="rgb(204, 204, 204)" stroke-width="1px"></line><line x1="143.8046875" y1="0" x2="143.8046875" y2="5" style="visibility: inherit;" fill="rgb(0, 0, 0)" stroke="rgb(204, 204, 204)" stroke-width="1px"></line><line x1="179.755859375" y1="0" x2="179.755859375" y2="5" style="visibility: inherit;" fill="rgb(0, 0, 0)" stroke="rgb(204, 204, 204)" stroke-width="1px"></line><line x1="215.70703125" y1="0" x2="215.70703125" y2="5" style="visibility: inherit;" fill="rgb(0, 0, 0)" stroke="rgb(204, 204, 204)" stroke-width="1px"></line><line x1="251.658203125" y1="0" x2="251.658203125" y2="5" style="visibility: inherit;" fill="rgb(0, 0, 0)" stroke="rgb(204, 204, 204)" stroke-width="1px"></line><line x1="287.609375" y1="0" x2="287.609375" y2="5" style="visibility: inherit;" fill="rgb(0, 0, 0)" stroke="rgb(204, 204, 204)" stroke-width="1px"></line></g><g transform="translate(0, 8)"><text x="0" y="0" dx="0em" dy="0.95em" style="text-anchor: middle; visibility: hidden; font-family: Roboto, sans-serif; font-size: 12px; font-weight: 200;" fill="rgb(33, 33, 33)" stroke="none" stroke-width="1px">-50</text><text x="35.951171875" y="0" dx="0em" dy="0.95em" style="text-anchor: middle; visibility: inherit; font-family: Roboto, sans-serif; font-size: 12px; font-weight: 200;" fill="rgb(33, 33, 33)" stroke="none" stroke-width="1px">0</text><text x="71.90234375" y="0" dx="0em" dy="0.95em" style="text-anchor: middle; visibility: inherit; font-family: Roboto, sans-serif; font-size: 12px; font-weight: 200;" fill="rgb(33, 33, 33)" stroke="none" stroke-width="1px">50</text><text x="107.853515625" y="0" dx="0em" dy="0.95em" style="text-anchor: middle; visibility: inherit; font-family: Roboto, sans-serif; font-size: 12px; font-weight: 200;" fill="rgb(33, 33, 33)" stroke="none" stroke-width="1px">100</text><text x="143.8046875" y="0" dx="0em" dy="0.95em" style="text-anchor: middle; visibility: inherit; font-family: Roboto, sans-serif; font-size: 12px; font-weight: 200;" fill="rgb(33, 33, 33)" stroke="none" stroke-width="1px">150</text><text x="179.755859375" y="0" dx="0em" dy="0.95em" style="text-anchor: middle; visibility: inherit; font-family: Roboto, sans-serif; font-size: 12px; font-weight: 200;" fill="rgb(33, 33, 33)" stroke="none" stroke-width="1px">200</text><text x="215.70703125" y="0" dx="0em" dy="0.95em" style="text-anchor: middle; visibility: inherit; font-family: Roboto, sans-serif; font-size: 12px; font-weight: 200;" fill="rgb(33, 33, 33)" stroke="none" stroke-width="1px">250</text><text x="251.658203125" y="0" dx="0em" dy="0.95em" style="text-anchor: middle; visibility: inherit; font-family: Roboto, sans-serif; font-size: 12px; font-weight: 200;" fill="rgb(33, 33, 33)" stroke="none" stroke-width="1px">300</text><text x="287.609375" y="0" dx="0em" dy="0.95em" style="text-anchor: middle; visibility: hidden; font-family: Roboto, sans-serif; font-size: 12px; font-weight: 200;" fill="rgb(33, 33, 33)" stroke="none" stroke-width="1px">350</text></g><line x1="0" y1="0" x2="287.609375" y2="0" fill="rgb(0, 0, 0)" stroke="rgb(204, 204, 204)" stroke-width="1px"></line></g></g></g></g></svg>